<svg xmlns="http://www.w3.org/2000/svg" width="96" height="96" viewBox="0 0 96 96" fill="none">
  <defs>
    <linearGradient id="g" x1="16" y1="12" x2="84" y2="86" gradientUnits="userSpaceOnUse">
      <stop stop-color="#0EA5E9"/>
      <stop offset="1" stop-color="#22C55E"/>
    </linearGradient>
  </defs>
  <rect x="10" y="10" width="76" height="76" rx="18" fill="url(#g)"/>
  <path d="M30 28c0-1.1.9-2 2-2h4c1.1 0 2 .9 2 2v18c0 3.3-2.7 6-6 6s-6-2.7-6-6V28z" fill="white" fill-opacity="0.95"/>
  <path d="M44 26h4v26c0 6.6-5.4 12-12 12h-4v-4h4c4.4 0 8-3.6 8-8V26z" fill="white" fill-opacity="0.9"/>
  <path d="M58 26h4c6.6 0 12 5.4 12 12v4c0 6.6-5.4 12-12 12h-1v10h-4V26z" fill="white" fill-opacity="0.95"/>
  <path d="M62 30h0c4.4 0 8 3.6 8 8v4c0 4.4-3.6 8-8 8h-1V30h1z" fill="white" fill-opacity="0.18"/>
  <path d="M28 72h40" stroke="white" stroke-opacity="0.35" stroke-width="4" stroke-linecap="round"/>
</svg>
